<svg width="24" height="24" viewBox="0 0 24 24" fill="none" xmlns="http://www.w3.org/2000/svg">
<path d="M4.76201 8.38992C4.73575 8.38992 4.70974 8.39509 4.68548 8.40514C4.66121 8.41519 4.63916 8.42992 4.62059 8.44849C4.60202 8.46707 4.58729 8.48911 4.57724 8.51338C4.56719 8.53764 4.56201 8.56365 4.56201 8.58992V10.9649C4.56201 11.0749 4.65201 11.1649 4.76201 11.1649H7.51601C7.88413 11.1649 8.23718 11.0187 8.49748 10.7584C8.75778 10.4981 8.90401 10.145 8.90401 9.77692C8.90401 9.4088 8.75778 9.05575 8.49748 8.79545C8.23718 8.53515 7.88413 8.38892 7.51601 8.38892L4.76201 8.38992ZM4.76201 12.9449C4.73575 12.9449 4.70974 12.9501 4.68548 12.9601C4.66121 12.9702 4.63916 12.9849 4.62059 13.0035C4.60202 13.0221 4.58729 13.0441 4.57724 13.0684C4.56719 13.0926 4.56201 13.1187 4.56201 13.1449V16.0189C4.56201 16.1289 4.65201 16.2189 4.76201 16.2189H7.69401C8.12817 16.2189 8.54455 16.0464 8.85155 15.7394C9.15854 15.4325 9.33101 15.0161 9.33101 14.5819C9.33101 14.1478 9.15854 13.7314 8.85155 13.4244C8.54455 13.1174 8.12817 12.9449 7.69401 12.9449H4.76201ZM16.137 13.0869C16.1137 13.0869 16.0913 13.0776 16.0748 13.0611C16.0583 13.0446 16.049 13.0223 16.049 12.9989C16.049 12.0249 16.838 11.2359 17.811 11.2359H18.201C19.174 11.2359 19.963 12.0259 19.963 12.9989C19.963 13.0469 19.923 13.0869 19.875 13.0869H16.137Z" fill="white"/>
<path fill-rule="evenodd" clip-rule="evenodd" d="M12.57 11.993C12.5061 11.9127 12.4394 11.8347 12.37 11.759C12.803 11.076 13.023 10.279 13.002 9.47204C13.0201 8.77698 12.881 8.0868 12.595 7.45304C12.3161 6.82305 11.8704 6.28122 11.306 5.88604L11.295 5.87804C10.7627 5.5127 10.1592 5.26394 9.524 5.14804C8.91392 5.02161 8.292 4.96126 7.669 4.96804H2C1.60218 4.96804 1.22064 5.12608 0.93934 5.40738C0.658035 5.68869 0.5 6.07022 0.5 6.46804V18.425C0.5 18.8229 0.658035 19.2044 0.93934 19.4857C1.22064 19.767 1.60218 19.925 2 19.925H7.8C8.458 19.925 9.112 19.842 9.748 19.677C10.4015 19.5081 11.0207 19.2269 11.578 18.846L11.585 18.841C12.141 18.456 12.6026 17.95 12.935 17.361C13.1548 17.7827 13.4262 18.1754 13.743 18.53C14.281 19.11 14.943 19.56 15.679 19.852L15.697 19.859C16.4528 20.1459 17.2557 20.2884 18.064 20.279C19.227 20.3086 20.3739 20.002 21.367 19.396C22.4567 18.6558 23.2439 17.5485 23.585 16.276C23.6496 16.0336 23.6523 15.7788 23.593 15.535C23.705 15.342 23.776 15.122 23.793 14.886C23.8495 14.0937 23.7817 13.2974 23.592 12.526L23.59 12.52C23.3963 11.7464 23.0577 11.0165 22.592 10.369L22.577 10.347C22.077 9.67741 21.4301 9.13141 20.686 8.75104C19.8868 8.35849 19.0063 8.15979 18.116 8.17104C17.3024 8.16737 16.4962 8.32508 15.744 8.63504L15.734 8.63904C15.0267 8.93653 14.3856 9.37163 13.848 9.91904L13.836 9.93004C13.2963 10.492 12.8783 11.1592 12.608 11.89L12.607 11.892C12.5944 11.9256 12.582 11.9593 12.57 11.993ZM9.828 11.923C10.5017 12.0858 11.0932 12.4882 11.492 13.055C11.8627 13.6181 12.0519 14.2812 12.034 14.955C12.0505 15.4996 11.9295 16.0396 11.682 16.525C11.459 16.958 11.132 17.33 10.732 17.608C10.3175 17.891 9.85699 18.0998 9.371 18.225C8.85824 18.3579 8.33069 18.4251 7.801 18.425H2V6.46804H7.678C8.20199 6.4616 8.72511 6.51257 9.238 6.62004C9.671 6.69704 10.083 6.86604 10.446 7.11504C10.788 7.35504 11.058 7.68304 11.226 8.06504C11.426 8.50604 11.52 8.98804 11.501 9.47204C11.5223 10.0028 11.3795 10.5273 11.092 10.974C10.78 11.394 10.312 11.722 9.828 11.923ZM16.002 14.994C15.9987 14.9227 15.9987 14.8513 16.002 14.78H22.297C22.3432 14.1438 22.2885 13.5042 22.135 12.885C21.9877 12.2952 21.7298 11.7387 21.375 11.245C21.017 10.7659 20.5551 10.3741 20.024 10.099C19.4327 9.8083 18.7808 9.66196 18.122 9.67204C17.5027 9.66741 16.8887 9.7864 16.316 10.022C15.791 10.243 15.316 10.565 14.918 10.97C14.5208 11.3831 14.2131 11.8737 14.014 12.411C13.8011 12.9905 13.695 13.6037 13.701 14.221C13.691 14.847 13.794 15.47 14.005 16.06C14.185 16.594 14.469 17.087 14.842 17.51C15.228 17.925 15.702 18.249 16.23 18.457C16.8189 18.6809 17.4451 18.7905 18.075 18.78C18.9584 18.8074 19.8306 18.5766 20.585 18.116C21.3457 17.5773 21.894 16.7895 22.135 15.889H20.033C19.9206 16.187 19.7137 16.4398 19.444 16.609C19.0781 16.8508 18.6463 16.9734 18.208 16.96C17.9178 16.9901 17.6245 16.9602 17.3463 16.8721C17.0681 16.784 16.811 16.6397 16.591 16.448C16.234 16.0454 16.0257 15.5326 16.001 14.995" fill="white"/>
<path d="M20.4469 6.396C20.4459 6.29061 20.4033 6.18989 20.3284 6.11574C20.2535 6.04159 20.1523 5.99999 20.0469 6H16.0219C15.9159 6 15.8141 6.04214 15.7391 6.11716C15.6641 6.19217 15.6219 6.29391 15.6219 6.4V7.47C15.6219 7.52253 15.6323 7.57454 15.6524 7.62307C15.6725 7.6716 15.702 7.7157 15.7391 7.75284C15.7762 7.78999 15.8203 7.81945 15.8689 7.83955C15.9174 7.85965 15.9694 7.87 16.0219 7.87H20.0579C20.1108 7.87 20.1632 7.85953 20.212 7.83917C20.2607 7.81882 20.305 7.789 20.3422 7.75143C20.3794 7.71386 20.4088 7.6693 20.4287 7.6203C20.4485 7.57131 20.4585 7.51886 20.4579 7.466L20.4469 6.396Z" fill="white"/>
</svg>
