<svg width="24" height="24" viewBox="0 0 24 24" fill="none" xmlns="http://www.w3.org/2000/svg">
<path d="M21.035 5.25705C21.945 6.34905 22.399 7.62305 22.399 9.07905C22.399 14.356 19.397 15.903 16.576 16.358C16.94 16.995 17.031 17.723 17.031 18.451V22.181C17.031 22.636 16.758 22.909 16.394 22.909C16.298 22.9104 16.2028 22.8925 16.1138 22.8564C16.0249 22.8203 15.9441 22.7667 15.8762 22.6988C15.8084 22.6309 15.7548 22.5502 15.7187 22.4612C15.6826 22.3723 15.6647 22.277 15.666 22.181V18.451C15.714 18.0697 15.6732 17.6824 15.5469 17.3194C15.4206 16.9563 15.2123 16.6274 14.938 16.358L15.393 15.175C18.214 14.811 21.126 13.901 21.126 8.98805C21.126 7.80505 20.671 6.71305 19.852 5.80305L19.67 5.07605C20.0161 4.2041 20.0479 3.2389 19.76 2.34605C19.306 2.43605 18.396 2.61905 16.85 3.71105L16.303 3.80105C14.1538 3.25531 11.9023 3.25531 9.75302 3.80105L9.20602 3.71105C7.57002 2.71005 6.66002 2.43705 6.20402 2.43705C5.93102 3.34705 5.93102 4.34705 6.29402 5.16705L6.11302 5.89405C5.20302 6.80405 4.74802 7.98705 4.74802 9.07905C4.74802 13.901 7.47802 14.902 10.48 15.266L10.844 16.449C10.298 16.995 10.025 17.723 10.116 18.451V22.272C10.1174 22.368 10.0995 22.4633 10.0633 22.5522C10.0272 22.6412 9.97367 22.7219 9.90579 22.7898C9.83792 22.8577 9.75713 22.9113 9.6682 22.9474C9.57927 22.9835 9.484 23.0014 9.38802 23C9.29205 23.0014 9.19678 22.9835 9.10784 22.9474C9.01891 22.9113 8.93812 22.8577 8.87025 22.7898C8.80238 22.7219 8.7488 22.6412 8.71269 22.5522C8.67659 22.4633 8.65867 22.368 8.66002 22.272V20.18C5.65802 20.817 4.47502 19.27 3.56502 18.088C3.11002 17.542 2.74602 17.087 2.29102 16.996C2.20102 16.905 1.92702 16.541 2.01802 16.177C2.10902 15.813 2.47302 15.54 2.83802 15.722C3.74802 15.904 4.29302 16.632 4.83802 17.269C5.65802 18.361 6.47702 19.361 8.93302 18.816V18.452C8.84302 17.724 9.02402 16.996 9.38802 16.359C6.65802 15.813 3.47402 14.266 3.47402 9.08005C3.47402 7.62405 3.92902 6.35005 4.83902 5.25805C4.56602 3.98505 4.65702 2.62005 5.11202 1.52805L5.56702 1.16405C5.74902 1.07305 7.02302 0.800046 9.66002 2.43705C11.8404 1.89112 14.1217 1.89112 16.302 2.43705C18.851 0.708046 20.216 0.980046 20.398 1.07205L20.853 1.43605C21.308 2.71005 21.399 3.98405 21.035 5.25705Z" fill="black"/>
</svg>
