<svg width="24" height="24" viewBox="0 0 24 24" fill="none" xmlns="http://www.w3.org/2000/svg">
<path fill-rule="evenodd" clip-rule="evenodd" d="M18.21 5.18997C17.786 5.26597 17.207 5.45797 16.363 5.73997L9.87304 7.90297C9.05004 8.17697 8.45303 8.37597 8.01803 8.54597C7.56603 8.72197 7.36804 8.83897 7.28504 8.91797C7.13924 9.05796 7.02324 9.22596 6.944 9.41189C6.86476 9.59783 6.82392 9.79786 6.82392 9.99997C6.82392 10.2021 6.86476 10.4021 6.944 10.5881C7.02324 10.774 7.13924 10.942 7.28504 11.082C7.36804 11.162 7.56603 11.278 8.01803 11.454C8.64404 11.6868 9.2752 11.9055 9.91104 12.11C10.203 12.207 10.405 12.274 10.588 12.371C11.0313 12.6058 11.3937 12.9685 11.628 13.412C11.726 13.595 11.793 13.797 11.89 14.089L11.903 14.128C12.177 14.95 12.376 15.548 12.546 15.982C12.722 16.434 12.839 16.632 12.919 16.715C13.059 16.8606 13.2269 16.9765 13.4128 17.0556C13.5986 17.1348 13.7985 17.1756 14.0005 17.1756C14.2025 17.1756 14.4024 17.1348 14.5883 17.0556C14.7741 16.9765 14.9421 16.8606 15.082 16.715C15.162 16.632 15.278 16.434 15.454 15.982C15.624 15.548 15.824 14.95 16.097 14.128L18.261 7.63697C18.542 6.79297 18.734 6.21297 18.809 5.78997C18.885 5.36197 18.81 5.26497 18.772 5.22797C18.735 5.18997 18.638 5.11397 18.21 5.18997ZM18.035 4.20697C18.545 4.11697 19.08 4.12197 19.48 4.52097C19.879 4.92097 19.884 5.45597 19.794 5.96597C19.704 6.47097 19.488 7.11997 19.224 7.91297L19.209 7.95297L17.046 14.445L17.041 14.46C16.8368 15.0938 16.6184 15.7229 16.386 16.347C16.211 16.793 16.036 17.167 15.803 17.409C15.5697 17.6519 15.2898 17.8451 14.9799 17.9771C14.6701 18.1091 14.3368 18.1772 14 18.1772C13.6633 18.1772 13.33 18.1091 13.0201 17.9771C12.7103 17.8451 12.4303 17.6519 12.197 17.409C11.965 17.166 11.789 16.793 11.614 16.347C11.434 15.886 11.227 15.264 10.959 14.46L10.954 14.445C10.839 14.1 10.798 13.982 10.744 13.881C10.6035 13.6147 10.386 13.397 10.12 13.256C10.02 13.203 9.90104 13.162 9.55604 13.046L9.54104 13.042C8.90737 12.8373 8.27822 12.6189 7.65404 12.387C7.20804 12.212 6.83404 12.037 6.59204 11.804C6.34915 11.5707 6.15591 11.2907 6.0239 10.9809C5.8919 10.6711 5.82385 10.3378 5.82385 10.001C5.82385 9.6642 5.8919 9.33089 6.0239 9.02106C6.15591 8.71123 6.34915 8.43127 6.59204 8.19797C6.83504 7.96497 7.20804 7.78997 7.65404 7.61497C8.11504 7.43497 8.73704 7.22797 9.54104 6.95997L9.55604 6.95497L16.047 4.79197L16.088 4.77797C16.881 4.51397 17.53 4.29797 18.035 4.20797" fill="black"/>
</svg>
