<svg width="23" height="23" viewBox="0 0 23 23" fill="none" xmlns="http://www.w3.org/2000/svg">
<path d="M8.62503 18.2083C8.62503 19.0133 8.74961 19.7992 8.97961 20.5275C5.29961 19.2529 2.52044 15.87 2.23294 11.9121C1.94544 7.70499 4.37003 3.77583 8.28961 2.12749C9.30544 1.70583 9.82294 2.01249 10.0434 2.23291C10.2542 2.44374 10.5513 2.95166 10.1296 3.91958C9.69836 4.91624 9.48753 5.97041 9.48753 7.06291C9.49711 9.01791 10.2638 10.8292 11.5096 12.2187C9.75586 13.6179 8.62503 15.7837 8.62503 18.2083Z" fill="#292D32"/>
<path opacity="0.4" d="M20.3262 16.9817C18.4287 19.5596 15.4196 21.0737 12.2092 21.0737C12.0558 21.0737 11.9025 21.0642 11.7492 21.0546C10.7908 21.0162 9.86125 20.8342 8.97958 20.5275C8.74958 19.7992 8.625 19.0133 8.625 18.2083C8.625 15.7837 9.75583 13.6179 11.5096 12.2188C12.9183 13.8 14.9404 14.8254 17.1733 14.9212C17.7771 14.95 18.3808 14.9021 18.975 14.7967C20.0483 14.605 20.4796 15.0075 20.6329 15.2663C20.7958 15.525 20.9683 16.0904 20.3262 16.9817Z" fill="#292D32"/>
</svg>
