<svg width="23" height="23" viewBox="0 0 23 23" fill="none" xmlns="http://www.w3.org/2000/svg">
<path opacity="0.4" d="M11.5 18.2083C15.2049 18.2083 18.2084 15.2049 18.2084 11.5C18.2084 7.79509 15.2049 4.79167 11.5 4.79167C7.79511 4.79167 4.79169 7.79509 4.79169 11.5C4.79169 15.2049 7.79511 18.2083 11.5 18.2083Z" fill="#FFB800"/>
<path d="M11.5 22.0033C10.9729 22.0033 10.5416 21.6104 10.5416 21.0833V21.0067C10.5416 20.4796 10.9729 20.0483 11.5 20.0483C12.0271 20.0483 12.4583 20.4796 12.4583 21.0067C12.4583 21.5337 12.0271 22.0033 11.5 22.0033ZM18.3425 19.3008C18.0933 19.3008 17.8537 19.205 17.6621 19.0229L17.5375 18.8983C17.1637 18.5246 17.1637 17.9208 17.5375 17.5471C17.9112 17.1733 18.515 17.1733 18.8887 17.5471L19.0133 17.6717C19.3871 18.0454 19.3871 18.6492 19.0133 19.0229C18.8312 19.205 18.5916 19.3008 18.3425 19.3008ZM4.65748 19.3008C4.40831 19.3008 4.16873 19.205 3.97706 19.0229C3.60331 18.6492 3.60331 18.0454 3.97706 17.6717L4.10165 17.5471C4.4754 17.1733 5.07915 17.1733 5.4529 17.5471C5.82665 17.9208 5.82665 18.5246 5.4529 18.8983L5.32831 19.0229C5.14623 19.205 4.89706 19.3008 4.65748 19.3008ZM21.0833 12.4583H21.0066C20.4796 12.4583 20.0483 12.0271 20.0483 11.5C20.0483 10.9729 20.4796 10.5417 21.0066 10.5417C21.5337 10.5417 22.0033 10.9729 22.0033 11.5C22.0033 12.0271 21.6104 12.4583 21.0833 12.4583ZM1.99331 12.4583H1.91665C1.38956 12.4583 0.958313 12.0271 0.958313 11.5C0.958313 10.9729 1.38956 10.5417 1.91665 10.5417C2.44373 10.5417 2.91331 10.9729 2.91331 11.5C2.91331 12.0271 2.5204 12.4583 1.99331 12.4583ZM18.2179 5.74041C17.9687 5.74041 17.7291 5.64458 17.5375 5.46249C17.1637 5.08874 17.1637 4.48499 17.5375 4.11124L17.6621 3.98666C18.0358 3.61291 18.6396 3.61291 19.0133 3.98666C19.3871 4.36041 19.3871 4.96416 19.0133 5.33791L18.8887 5.46249C18.7066 5.64458 18.4671 5.74041 18.2179 5.74041ZM4.78206 5.74041C4.5329 5.74041 4.29331 5.64458 4.10165 5.46249L3.97706 5.32833C3.60331 4.95458 3.60331 4.35083 3.97706 3.97708C4.35081 3.60333 4.95456 3.60333 5.32831 3.97708L5.4529 4.10166C5.82665 4.47541 5.82665 5.07916 5.4529 5.45291C5.27081 5.64458 5.02165 5.74041 4.78206 5.74041ZM11.5 2.91333C10.9729 2.91333 10.5416 2.52041 10.5416 1.99333V1.91666C10.5416 1.38958 10.9729 0.958328 11.5 0.958328C12.0271 0.958328 12.4583 1.38958 12.4583 1.91666C12.4583 2.44374 12.0271 2.91333 11.5 2.91333Z" fill="#FFB800"/>
</svg>
