<svg width="24" height="24" viewBox="0 0 24 24" fill="none" xmlns="http://www.w3.org/2000/svg">
<path d="M12 0.999023C5.926 0.999023 1 6.04902 1 12.277C1 17.26 4.152 21.487 8.523 22.979C9.073 23.083 9.25 22.733 9.25 22.436V20.336C6.19 21.019 5.553 19.006 5.553 19.006C5.053 17.702 4.331 17.356 4.331 17.356C3.333 16.656 4.407 16.67 4.407 16.67C5.512 16.75 6.093 17.833 6.093 17.833C7.073 19.557 8.666 19.059 9.294 18.77C9.392 18.042 9.677 17.544 9.992 17.262C7.55 16.976 4.982 16.009 4.982 11.688C4.982 10.456 5.411 9.45102 6.114 8.66102C6 8.37602 5.624 7.22902 6.221 5.67602C6.221 5.67602 7.145 5.37302 9.247 6.83202C10.124 6.58202 11.065 6.45702 12 6.45202C12.935 6.45702 13.876 6.58202 14.755 6.83202C16.855 5.37302 17.778 5.67602 17.778 5.67602C18.376 7.23002 18 8.37702 17.886 8.66102C18.592 9.45102 19.018 10.457 19.018 11.688C19.018 16.02 16.445 16.974 13.996 17.253C14.39 17.603 14.75 18.289 14.75 19.341V22.436C14.75 22.736 14.926 23.088 15.484 22.978C19.852 21.484 23 17.258 23 12.277C23 6.04802 18.075 0.999023 12 0.999023Z" fill="white"/>
</svg>
