<svg width="15" height="15" viewBox="0 0 15 15" fill="none" xmlns="http://www.w3.org/2000/svg">
<path fill-rule="evenodd" clip-rule="evenodd" d="M0 1.5C0 1.10218 0.158035 0.720644 0.43934 0.43934C0.720644 0.158035 1.10218 0 1.5 0L13.5 0C13.8978 0 14.2794 0.158035 14.5607 0.43934C14.842 0.720644 15 1.10218 15 1.5V13.5C15 13.8978 14.842 14.2794 14.5607 14.5607C14.2794 14.842 13.8978 15 13.5 15H1.5C1.10218 15 0.720644 14.842 0.43934 14.5607C0.158035 14.2794 0 13.8978 0 13.5L0 1.5ZM5 5H4V4H5V5ZM4 11V6H5V11H4ZM8.5 7C8.10218 7 7.72064 7.15804 7.43934 7.43934C7.15804 7.72064 7 8.10218 7 8.5V11H6V6H7V6.5C7.37142 6.22143 7.81308 6.0518 8.27549 6.0101C8.73789 5.96841 9.20277 6.0563 9.61803 6.26393C10.0333 6.47156 10.3825 6.79073 10.6266 7.18567C10.8707 7.58061 11 8.03572 11 8.5V11H10V8.5C10 8.10218 9.84196 7.72064 9.56066 7.43934C9.27936 7.15804 8.89782 7 8.5 7Z" fill="white"/>
</svg>
